ply
format ascii 1.0
element vertex 72
property float x
property float y
property float z
element face 108
property list uchar int vertex_indices
end_header
-2.5 -2.0 0.0
2.5 -2.0 0.0
2.5 2.0 0.0
-2.5 2.0 0.0
-2.5 -2.0 0.05000000074505806
2.5 -2.0 0.05000000074505806
2.5 2.0 0.05000000074505806
-2.5 2.0 0.05000000074505806
-2.549999952316284 2.0 0.0
2.549999952316284 2.0 0.0
2.549999952316284 2.0999999046325684 0.0
-2.549999952316284 2.0999999046325684 0.0
-2.549999952316284 2.0 2.700000047683716
2.549999952316284 2.0 2.700000047683716
2.549999952316284 2.0999999046325684 2.700000047683716
-2.549999952316284 2.0999999046325684 2.700000047683716
-2.549999952316284 -2.0999999046325684 0.0
2.549999952316284 -2.0999999046325684 0.0
2.549999952316284 -2.0 0.0
-2.549999952316284 -2.0 0.0
-2.549999952316284 -2.0999999046325684 2.700000047683716
2.549999952316284 -2.0999999046325684 2.700000047683716
2.549999952316284 -2.0 2.700000047683716
-2.549999952316284 -2.0 2.700000047683716
-2.5999999046325684 -2.049999952316284 0.0
-2.5 -2.049999952316284 0.0
-2.5 2.049999952316284 0.0
-2.5999999046325684 2.049999952316284 0.0
-2.5999999046325684 -2.049999952316284 2.700000047683716
-2.5 -2.049999952316284 2.700000047683716
-2.5 2.049999952316284 2.700000047683716
-2.5999999046325684 2.049999952316284 2.700000047683716
2.5 -2.049999952316284 0.0
2.5999999046325684 -2.049999952316284 0.0
2.5999999046325684 2.049999952316284 0.0
2.5 2.049999952316284 0.0
2.5 -2.049999952316284 2.700000047683716
2.5999999046325684 -2.049999952316284 2.700000047683716
2.5999999046325684 2.049999952316284 2.700000047683716
2.5 2.049999952316284 2.700000047683716
-2.4000000953674316 0.699999988079071 0.44999998807907104
-0.800000011920929 0.699999988079071 0.44999998807907104
-0.800000011920929 1.2999999523162842 0.44999998807907104
-2.4000000953674316 1.2999999523162842 0.44999998807907104
-2.4000000953674316 0.699999988079071 1.350000023841858
-0.800000011920929 0.699999988079071 1.350000023841858
-0.800000011920929 1.2999999523162842 1.350000023841858
-2.4000000953674316 1.2999999523162842 1.350000023841858
-0.10000000149011612 -0.15000000596046448 0.44999998807907104
1.2999999523162842 -0.15000000596046448 0.44999998807907104
1.2999999523162842 0.550000011920929 0.44999998807907104
-0.10000000149011612 0.550000011920929 0.44999998807907104
-0.10000000149011612 -0.15000000596046448 1.350000023841858
1.2999999523162842 -0.15000000596046448 1.350000023841858
1.2999999523162842 0.550000011920929 1.350000023841858
-0.10000000149011612 0.550000011920929 1.350000023841858
1.399999976158142 0.0 0.0
1.7999999523162842 0.0 0.0
1.7999999523162842 0.4000000059604645 0.0
1.399999976158142 0.4000000059604645 0.0
1.399999976158142 0.0 1.0
1.7999999523162842 0.0 1.0
1.7999999523162842 0.4000000059604645 1.0
1.399999976158142 0.4000000059604645 1.0
-2.3499999046325684 -1.7999999523162842 0.0
-1.649999976158142 -1.7999999523162842 0.0
-1.649999976158142 -1.0 0.0
-2.3499999046325684 -1.0 0.0
-2.3499999046325684 -1.7999999523162842 2.200000047683716
-1.649999976158142 -1.7999999523162842 2.200000047683716
-1.649999976158142 -1.0 2.200000047683716
-2.3499999046325684 -1.0 2.200000047683716
3 0 1 2
3 0 2 3
3 4 5 6
3 4 6 7
3 0 1 5
3 0 5 4
3 1 2 6
3 1 6 5
3 2 3 7
3 2 7 6
3 3 0 4
3 3 4 7
3 8 9 10
3 8 10 11
3 12 13 14
3 12 14 15
3 8 9 13
3 8 13 12
3 9 10 14
3 9 14 13
3 10 11 15
3 10 15 14
3 11 8 12
3 11 12 15
3 16 17 18
3 16 18 19
3 20 21 22
3 20 22 23
3 16 17 21
3 16 21 20
3 17 18 22
3 17 22 21
3 18 19 23
3 18 23 22
3 19 16 20
3 19 20 23
3 24 25 26
3 24 26 27
3 28 29 30
3 28 30 31
3 24 25 29
3 24 29 28
3 25 26 30
3 25 30 29
3 26 27 31
3 26 31 30
3 27 24 28
3 27 28 31
3 32 33 34
3 32 34 35
3 36 37 38
3 36 38 39
3 32 33 37
3 32 37 36
3 33 34 38
3 33 38 37
3 34 35 39
3 34 39 38
3 35 32 36
3 35 36 39
3 40 41 42
3 40 42 43
3 44 45 46
3 44 46 47
3 40 41 45
3 40 45 44
3 41 42 46
3 41 46 45
3 42 43 47
3 42 47 46
3 43 40 44
3 43 44 47
3 48 49 50
3 48 50 51
3 52 53 54
3 52 54 55
3 48 49 53
3 48 53 52
3 49 50 54
3 49 54 53
3 50 51 55
3 50 55 54
3 51 48 52
3 51 52 55
3 56 57 58
3 56 58 59
3 60 61 62
3 60 62 63
3 56 57 61
3 56 61 60
3 57 58 62
3 57 62 61
3 58 59 63
3 58 63 62
3 59 56 60
3 59 60 63
3 64 65 66
3 64 66 67
3 68 69 70
3 68 70 71
3 64 65 69
3 64 69 68
3 65 66 70
3 65 70 69
3 66 67 71
3 66 71 70
3 67 64 68
3 67 68 71
